<?xml version="1.0" encoding="utf-8"?><!DOCTYPE svg PUBLIC "-//W3C//DTD SVG 1.1//EN" "http://www.w3.org/Graphics/SVG/1.1/DTD/svg11.dtd"><svg version="1.1" id="Calque_1" xmlns="http://www.w3.org/2000/svg" xmlns:xlink="http://www.w3.org/1999/xlink" x="0px" y="0px"width="20px" height="20px" viewBox="0 0 20 20" enable-background="new 0 0 20 20" xml:space="preserve"><g id="dribble"><path fill="#0F0F0F" d="M14.637,4.778c-0.126,0.179-1.179,1.595-3.666,2.527C9.824,5.198,8.554,3.469,8.361,3.21C8.886,3.083,9.435,3.015,10,3.015C11.777,3.015,13.401,3.682,14.637,4.778L14.637,4.778z M10.489,10.071c-3.608,1.166-5.528,4.345-5.686,4.616c-1.117-1.241-1.798-2.88-1.798-4.677c0-0.071,0.002-0.143,0.004-0.214c0.306,0.006,3.696,0.05,7.189-0.996c0.2,0.392,0.391,0.79,0.567,1.188C10.672,10.014,10.58,10.042,10.489,10.071z M10,0.64c-5.169,0-9.36,4.19-9.36,9.36s4.19,9.36,9.36,9.36s9.36-4.19,9.36-9.36S15.169,0.64,10,0.64z M10,18.19c-4.516,0-8.19-3.674-8.19-8.19S5.484,1.81,10,1.81s8.19,3.674,8.19,8.19S14.516,18.19,10,18.19z M11.973,9.358c-0.145-0.341-0.302-0.68-0.464-1.013c2.587-1.056,3.758-2.558,3.906-2.758c0.974,1.19,1.564,2.706,1.58,4.357c-0.231-0.049-2.543-0.517-4.871-0.225C12.074,9.599,12.025,9.479,11.973,9.358L11.973,9.358z M9.619,7.726C6.348,8.594,3.466,8.582,3.153,8.578C3.607,6.407,5.069,4.603,7.026,3.68C7.211,3.933,8.46,5.666,9.619,7.726L9.619,7.726zM11.194,11.161c0.015-0.006,0.03-0.01,0.046-0.015c0.982,2.552,1.388,4.691,1.492,5.305c-0.839,0.357-1.763,0.555-2.732,0.555c-1.618,0-3.108-0.552-4.294-1.477C5.832,15.271,7.248,12.536,11.194,11.161L11.194,11.161z M12.55,10.822c2.192-0.351,4.118,0.224,4.357,0.299c-0.312,1.946-1.429,3.627-2.999,4.689C13.837,15.384,13.464,13.337,12.55,10.822L12.55,10.822z"/></g></svg>
