<?xml version="1.0" encoding="utf-8"?><!DOCTYPE svg PUBLIC "-//W3C//DTD SVG 1.1//EN" "http://www.w3.org/Graphics/SVG/1.1/DTD/svg11.dtd"><svg version="1.1" id="Capa_1" xmlns="http://www.w3.org/2000/svg" xmlns:xlink="http://www.w3.org/1999/xlink" x="0px" y="0px" width="20px" height="20px" viewBox="0 0 20 20" enable-background="new 0 0 20 20" xml:space="preserve"><g><path d="M19.496,0.089H0.505c-0.23,0-0.416,0.186-0.416,0.416v18.991c0,0.23,0.186,0.416,0.416,0.416h10.09v-6.624H8.465c-0.184,0-0.333-0.149-0.333-0.333v-2.685c0-0.184,0.149-0.333,0.333-0.333h2.13V8.083c0-2.442,1.538-4.02,3.917-4.02l2.118,0.003c0.184,0,0.333,0.149,0.333,0.333v2.493c0,0.184-0.149,0.333-0.333,0.333l-1.427,0.001c-0.983,0-1.163,0.383-1.163,1.138v1.571h2.491c0.088,0,0.173,0.035,0.236,0.098c0.062,0.063,0.098,0.147,0.098,0.236l-0.001,2.685c0,0.184-0.149,0.333-0.333,0.333h-2.49v6.623h5.456c0.23,0,0.416-0.186,0.416-0.416V0.505C19.911,0.275,19.725,0.089,19.496,0.089z"/></g></svg>
