<?xml version="1.0" encoding="utf-8"?><!DOCTYPE svg PUBLIC "-//W3C//DTD SVG 1.1//EN" "http://www.w3.org/Graphics/SVG/1.1/DTD/svg11.dtd"><svg version="1.1" id="Calque_1" xmlns="http://www.w3.org/2000/svg" xmlns:xlink="http://www.w3.org/1999/xlink" x="0px" y="0px" width="20px" height="20px" viewBox="0 0 20 20" enable-background="new 0 0 20 20" xml:space="preserve"><g id="github"><path fill="#0F0F0F" d="M10,0.408c-5.297,0-9.592,4.294-9.592,9.592S4.703,19.592,10,19.592s9.592-4.294,9.592-9.592S15.297,0.408,10,0.408z M15.696,15.696c-0.74,0.74-1.602,1.321-2.561,1.727c-0.243,0.103-0.491,0.194-0.742,0.271v-1.437c0-0.756-0.259-1.311-0.777-1.667c0.325-0.031,0.623-0.075,0.894-0.131c0.271-0.056,0.559-0.138,0.862-0.243c0.302-0.107,0.575-0.233,0.815-0.379s0.472-0.337,0.693-0.572c0.222-0.235,0.408-0.499,0.557-0.796c0.15-0.297,0.268-0.652,0.356-1.068c0.087-0.415,0.131-0.872,0.131-1.372c0-0.968-0.315-1.792-0.946-2.473c0.287-0.749,0.256-1.564-0.094-2.445l-0.235-0.028c-0.162-0.018-0.455,0.05-0.876,0.206c-0.42,0.155-0.893,0.411-1.417,0.767c-0.743-0.206-1.515-0.309-2.314-0.309c-0.805,0-1.574,0.103-2.304,0.309C7.407,5.832,7.093,5.647,6.796,5.5C6.5,5.353,6.262,5.253,6.084,5.2C5.907,5.147,5.741,5.114,5.588,5.101c-0.153-0.013-0.251-0.016-0.295-0.01C5.25,5.098,5.218,5.104,5.199,5.111c-0.35,0.887-0.381,1.702-0.093,2.444C4.475,8.236,4.159,9.06,4.159,10.028c0,0.499,0.044,0.957,0.131,1.372c0.087,0.415,0.206,0.771,0.356,1.068c0.15,0.297,0.335,0.562,0.557,0.796c0.222,0.235,0.453,0.424,0.693,0.572c0.24,0.147,0.512,0.273,0.815,0.379c0.302,0.107,0.59,0.187,0.862,0.243c0.271,0.056,0.57,0.1,0.894,0.131c-0.512,0.35-0.768,0.905-0.768,1.667v1.465c-0.283-0.084-0.562-0.183-0.835-0.299c-0.959-0.406-1.821-0.987-2.561-1.727s-1.321-1.602-1.727-2.561c-0.418-0.99-0.63-2.045-0.63-3.133s0.213-2.143,0.633-3.135c0.406-0.959,0.987-1.821,1.727-2.561s1.601-1.321,2.56-1.727C7.857,2.157,8.912,1.945,10,1.945s2.143,0.213,3.135,0.633c0.959,0.406,1.821,0.987,2.561,1.727c0.74,0.74,1.321,1.602,1.727,2.561c0.42,0.992,0.632,2.047,0.632,3.135s-0.213,2.143-0.633,3.135C17.017,14.094,16.436,14.956,15.696,15.696L15.696,15.696z"/></g></svg>
