<?xml version="1.0" encoding="utf-8"?><!DOCTYPE svg PUBLIC "-//W3C//DTD SVG 1.1//EN" "http://www.w3.org/Graphics/SVG/1.1/DTD/svg11.dtd"><svg version="1.1" id="Capa_1" xmlns="http://www.w3.org/2000/svg" xmlns:xlink="http://www.w3.org/1999/xlink" x="0px" y="0px" width="20px" height="20px" viewBox="0 0 20 20" enable-background="new 0 0 20 20" xml:space="preserve"><g><path id="LinkedIn" d="M18.634,11.866v6.384h-3.701v-5.956c0-1.496-0.535-2.517-1.875-2.517c-1.023,0-1.631,0.688-1.899,1.354c-0.098,0.238-0.123,0.569-0.123,0.902v6.217H7.334c0,0,0.05-10.088,0-11.133h3.702v1.578c-0.008,0.012-0.017,0.025-0.024,0.036h0.024V8.695c0.492-0.758,1.37-1.84,3.336-1.84C16.808,6.855,18.634,8.446,18.634,11.866z M3.461,1.75c-1.267,0-2.095,0.831-2.095,1.923c0,1.069,0.804,1.925,2.046,1.925h0.025c1.291,0,2.094-0.856,2.094-1.925C5.506,2.581,4.728,1.75,3.461,1.75z M1.586,18.25h3.701V7.117H1.586V18.25z"/></g></svg>
