<?xml version="1.0" encoding="utf-8"?><!DOCTYPE svg PUBLIC "-//W3C//DTD SVG 1.1//EN" "http://www.w3.org/Graphics/SVG/1.1/DTD/svg11.dtd"><svg version="1.1" id="youtube" xmlns="http://www.w3.org/2000/svg" xmlns:xlink="http://www.w3.org/1999/xlink" x="0px" y="0px" width="20px" height="20px" viewBox="0 0 20 20" enable-background="new 0 0 20 20" xml:space="preserve"><path fill="#0F0F0F" d="M19.491,5.255c-0.201-1.074-1.095-1.876-2.122-1.975c-2.453-0.157-4.915-0.285-7.372-0.287c-2.458-0.001-4.91,0.124-7.364,0.279c-1.031,0.1-1.925,0.897-2.125,1.975C0.279,6.8,0.165,8.368,0.165,9.935s0.114,3.135,0.342,4.688c0.2,1.078,1.094,1.971,2.125,2.07c2.454,0.155,4.905,0.313,7.364,0.313c2.457,0,4.921-0.138,7.372-0.297c1.027-0.1,1.922-1.019,2.122-2.093c0.23-1.55,0.344-3.116,0.344-4.682C19.835,8.37,19.72,6.805,19.491,5.255z M7.77,12.759V7.044l5.323,2.858L7.77,12.759z"/></svg>
